<svg width="15" height="15" viewBox="0 0 15 15" fill="none" xmlns="http://www.w3.org/2000/svg">
<path d="M7.5 3.75C9.86875 3.75 11.9812 5.08125 13.0125 7.1875C11.9812 9.29375 9.86875 10.625 7.5 10.625C5.13125 10.625 3.01875 9.29375 1.9875 7.1875C3.01875 5.08125 5.13125 3.75 7.5 3.75ZM7.5 2.5C4.375 2.5 1.70625 4.44375 0.625 7.1875C1.70625 9.93125 4.375 11.875 7.5 11.875C10.625 11.875 13.2937 9.93125 14.375 7.1875C13.2937 4.44375 10.625 2.5 7.5 2.5ZM7.5 5.625C8.3625 5.625 9.0625 6.325 9.0625 7.1875C9.0625 8.05 8.3625 8.75 7.5 8.75C6.6375 8.75 5.9375 8.05 5.9375 7.1875C5.9375 6.325 6.6375 5.625 7.5 5.625ZM7.5 4.375C5.95 4.375 4.6875 5.6375 4.6875 7.1875C4.6875 8.7375 5.95 10 7.5 10C9.05 10 10.3125 8.7375 10.3125 7.1875C10.3125 5.6375 9.05 4.375 7.5 4.375Z" fill="#CAD0DC"/>
</svg>
